<svg xmlns="http://www.w3.org/2000/svg" viewBox="0 0 64 64">
  <defs>
    <linearGradient id="g" x1="0" x2="1" y1="0" y2="1">
      <stop offset="0%" stop-color="#2563eb"/>
      <stop offset="100%" stop-color="#1e3a8a"/>
    </linearGradient>
  </defs>
  <rect width="64" height="64" rx="12" fill="url(#g)"/>
  <path d="M20 48V16h14.5c4.4 0 7.8 1 10.1 3 2.3 2 3.4 4.6 3.4 7.8 0 3.3-1.2 6-3.5 8.1-2.3 2.1-5.7 3.1-10.1 3.1H28v10H20zm8-18h6.2c2.1 0 3.7-.5 4.8-1.4 1.1-.9 1.6-2.2 1.6-3.8 0-1.7-.5-3-1.6-3.9-1.1-.9-2.7-1.3-4.8-1.3H28v10.4z" fill="#fff"/>
</svg>
